<svg width="60" height="60" viewBox="0 0 60 60" fill="none" xmlns="http://www.w3.org/2000/svg">
<mask id="mask0_31_149" style="mask-type:alpha" maskUnits="userSpaceOnUse" x="0" y="0" width="60" height="60">
<rect width="60" height="60" fill="#D9D9D9"/>
</mask>
<g mask="url(#mask0_31_149)">
<path d="M27.375 33.375L39.75 21L36.1875 17.4375L27.375 26.25L23.875 22.75L20.3125 26.3125L27.375 33.375ZM30 48.375C35.0833 43.7083 38.8542 39.4687 41.3125 35.6562C43.7708 31.8437 45 28.4583 45 25.5C45 20.9583 43.5521 17.2396 40.6562 14.3437C37.7604 11.4479 34.2083 10 30 10C25.7917 10 22.2396 11.4479 19.3437 14.3437C16.4479 17.2396 15 20.9583 15 25.5C15 28.4583 16.2292 31.8437 18.6875 35.6562C21.1458 39.4687 24.9167 43.7083 30 48.375ZM30 55C23.2917 49.2917 18.2813 43.9896 14.9688 39.0937C11.6563 34.1979 10 29.6667 10 25.5C10 19.25 12.0104 14.2708 16.0313 10.5625C20.0521 6.85417 24.7083 5 30 5C35.2917 5 39.9479 6.85417 43.9688 10.5625C47.9896 14.2708 50 19.25 50 25.5C50 29.6667 48.3437 34.1979 45.0312 39.0937C41.7187 43.9896 36.7083 49.2917 30 55Z" fill="white"/>
</g>
</svg>
